<mxfile host="app.diagrams.net" modified="2023-09-14T10:03:17.452Z" agent="Mozilla/5.0 (Windows NT 10.0; Win64; x64) AppleWebKit/537.36 (KHTML, like Gecko) Chrome/116.0.0.0 Safari/537.36" etag="LcwxHi-eznKZ5kwYk8Ef" version="21.7.5" type="device">
  <diagram name="Page-1" id="2YBvvXClWsGukQMizWep">
    <mxGraphModel dx="1050" dy="542" grid="1" gridSize="10" guides="1" tooltips="1" connect="1" arrows="1" fold="1" page="1" pageScale="1" pageWidth="850" pageHeight="1100" math="0" shadow="0">
      <root>
        <mxCell id="0" />
        <mxCell id="1" parent="0" />
        <mxCell id="9hIXvd_vDNnnHWC71N-C-20" value="" style="rounded=0;whiteSpace=wrap;html=1;strokeColor=#7EA6E0;" vertex="1" parent="1">
          <mxGeometry x="60" y="330" width="630" height="320" as="geometry" />
        </mxCell>
        <mxCell id="pPaHzkRW0WduUCZ9Fjcq-30" value="" style="endArrow=none;dashed=1;html=1;rounded=0;" parent="1" edge="1">
          <mxGeometry width="50" height="50" relative="1" as="geometry">
            <mxPoint x="80" y="610" as="sourcePoint" />
            <mxPoint x="80" y="100" as="targetPoint" />
          </mxGeometry>
        </mxCell>
        <mxCell id="aM9ryv3xv72pqoxQDRHE-5" value="UI: Login" style="shape=umlLifeline;perimeter=lifelinePerimeter;whiteSpace=wrap;html=1;container=0;dropTarget=0;collapsible=0;recursiveResize=0;outlineConnect=0;portConstraint=eastwest;newEdgeStyle={&quot;edgeStyle&quot;:&quot;elbowEdgeStyle&quot;,&quot;elbow&quot;:&quot;vertical&quot;,&quot;curved&quot;:0,&quot;rounded&quot;:0};" parent="1" vertex="1">
          <mxGeometry x="220" y="40" width="100" height="570" as="geometry" />
        </mxCell>
        <mxCell id="aM9ryv3xv72pqoxQDRHE-6" value="" style="html=1;points=[];perimeter=orthogonalPerimeter;outlineConnect=0;targetShapes=umlLifeline;portConstraint=eastwest;newEdgeStyle={&quot;edgeStyle&quot;:&quot;elbowEdgeStyle&quot;,&quot;elbow&quot;:&quot;vertical&quot;,&quot;curved&quot;:0,&quot;rounded&quot;:0};" parent="aM9ryv3xv72pqoxQDRHE-5" vertex="1">
          <mxGeometry x="45" y="90" width="10" height="180" as="geometry" />
        </mxCell>
        <mxCell id="9hIXvd_vDNnnHWC71N-C-4" value="" style="html=1;points=[];perimeter=orthogonalPerimeter;outlineConnect=0;targetShapes=umlLifeline;portConstraint=eastwest;newEdgeStyle={&quot;edgeStyle&quot;:&quot;elbowEdgeStyle&quot;,&quot;elbow&quot;:&quot;vertical&quot;,&quot;curved&quot;:0,&quot;rounded&quot;:0};" vertex="1" parent="aM9ryv3xv72pqoxQDRHE-5">
          <mxGeometry x="45" y="317" width="10" height="243" as="geometry" />
        </mxCell>
        <mxCell id="pPaHzkRW0WduUCZ9Fjcq-1" value="API" style="shape=umlLifeline;perimeter=lifelinePerimeter;whiteSpace=wrap;html=1;container=0;dropTarget=0;collapsible=0;recursiveResize=0;outlineConnect=0;portConstraint=eastwest;newEdgeStyle={&quot;edgeStyle&quot;:&quot;elbowEdgeStyle&quot;,&quot;elbow&quot;:&quot;vertical&quot;,&quot;curved&quot;:0,&quot;rounded&quot;:0};" parent="1" vertex="1">
          <mxGeometry x="410" y="40" width="100" height="570" as="geometry" />
        </mxCell>
        <mxCell id="pPaHzkRW0WduUCZ9Fjcq-2" value="" style="html=1;points=[];perimeter=orthogonalPerimeter;outlineConnect=0;targetShapes=umlLifeline;portConstraint=eastwest;newEdgeStyle={&quot;edgeStyle&quot;:&quot;elbowEdgeStyle&quot;,&quot;elbow&quot;:&quot;vertical&quot;,&quot;curved&quot;:0,&quot;rounded&quot;:0};" parent="pPaHzkRW0WduUCZ9Fjcq-1" vertex="1">
          <mxGeometry x="45" y="110" width="10" height="150" as="geometry" />
        </mxCell>
        <mxCell id="9hIXvd_vDNnnHWC71N-C-7" value="" style="html=1;points=[];perimeter=orthogonalPerimeter;outlineConnect=0;targetShapes=umlLifeline;portConstraint=eastwest;newEdgeStyle={&quot;edgeStyle&quot;:&quot;elbowEdgeStyle&quot;,&quot;elbow&quot;:&quot;vertical&quot;,&quot;curved&quot;:0,&quot;rounded&quot;:0};" vertex="1" parent="pPaHzkRW0WduUCZ9Fjcq-1">
          <mxGeometry x="45" y="340" width="10" height="190" as="geometry" />
        </mxCell>
        <mxCell id="pPaHzkRW0WduUCZ9Fjcq-6" value="Validate Input" style="html=1;verticalAlign=bottom;endArrow=block;edgeStyle=elbowEdgeStyle;elbow=vertical;curved=0;rounded=0;" parent="1" edge="1">
          <mxGeometry relative="1" as="geometry">
            <mxPoint x="275" y="150" as="sourcePoint" />
            <Array as="points">
              <mxPoint x="365" y="150" />
            </Array>
            <mxPoint x="450" y="150" as="targetPoint" />
          </mxGeometry>
        </mxCell>
        <mxCell id="pPaHzkRW0WduUCZ9Fjcq-8" value="Login Failure" style="html=1;verticalAlign=bottom;endArrow=open;dashed=1;endSize=8;edgeStyle=elbowEdgeStyle;elbow=vertical;curved=0;rounded=0;" parent="1" edge="1">
          <mxGeometry relative="1" as="geometry">
            <mxPoint x="280" y="250" as="targetPoint" />
            <Array as="points">
              <mxPoint x="375" y="250" />
            </Array>
            <mxPoint x="450" y="250" as="sourcePoint" />
          </mxGeometry>
        </mxCell>
        <mxCell id="pPaHzkRW0WduUCZ9Fjcq-11" value="Database" style="shape=umlLifeline;perimeter=lifelinePerimeter;whiteSpace=wrap;html=1;container=0;dropTarget=0;collapsible=0;recursiveResize=0;outlineConnect=0;portConstraint=eastwest;newEdgeStyle={&quot;edgeStyle&quot;:&quot;elbowEdgeStyle&quot;,&quot;elbow&quot;:&quot;vertical&quot;,&quot;curved&quot;:0,&quot;rounded&quot;:0};" parent="1" vertex="1">
          <mxGeometry x="600" y="40" width="100" height="460" as="geometry" />
        </mxCell>
        <mxCell id="pPaHzkRW0WduUCZ9Fjcq-12" value="" style="html=1;points=[];perimeter=orthogonalPerimeter;outlineConnect=0;targetShapes=umlLifeline;portConstraint=eastwest;newEdgeStyle={&quot;edgeStyle&quot;:&quot;elbowEdgeStyle&quot;,&quot;elbow&quot;:&quot;vertical&quot;,&quot;curved&quot;:0,&quot;rounded&quot;:0};" parent="pPaHzkRW0WduUCZ9Fjcq-11" vertex="1">
          <mxGeometry x="45" y="150" width="10" height="40" as="geometry" />
        </mxCell>
        <mxCell id="9hIXvd_vDNnnHWC71N-C-12" value="" style="html=1;points=[];perimeter=orthogonalPerimeter;outlineConnect=0;targetShapes=umlLifeline;portConstraint=eastwest;newEdgeStyle={&quot;edgeStyle&quot;:&quot;elbowEdgeStyle&quot;,&quot;elbow&quot;:&quot;vertical&quot;,&quot;curved&quot;:0,&quot;rounded&quot;:0};" vertex="1" parent="pPaHzkRW0WduUCZ9Fjcq-11">
          <mxGeometry x="45" y="420" width="10" height="40" as="geometry" />
        </mxCell>
        <mxCell id="pPaHzkRW0WduUCZ9Fjcq-14" value="Query User/Password" style="html=1;verticalAlign=bottom;endArrow=block;edgeStyle=elbowEdgeStyle;elbow=vertical;curved=0;rounded=0;" parent="1" edge="1">
          <mxGeometry relative="1" as="geometry">
            <mxPoint x="470" y="190" as="sourcePoint" />
            <Array as="points">
              <mxPoint x="560" y="190" />
            </Array>
            <mxPoint x="645" y="190" as="targetPoint" />
          </mxGeometry>
        </mxCell>
        <mxCell id="pPaHzkRW0WduUCZ9Fjcq-15" value="Return Query Result" style="html=1;verticalAlign=bottom;endArrow=open;dashed=1;endSize=8;edgeStyle=elbowEdgeStyle;elbow=vertical;curved=0;rounded=0;" parent="1" edge="1">
          <mxGeometry relative="1" as="geometry">
            <mxPoint x="470" y="230" as="targetPoint" />
            <Array as="points">
              <mxPoint x="565" y="230" />
            </Array>
            <mxPoint x="640" y="230" as="sourcePoint" />
          </mxGeometry>
        </mxCell>
        <mxCell id="pPaHzkRW0WduUCZ9Fjcq-16" value="Login User" style="html=1;verticalAlign=bottom;endArrow=open;dashed=1;endSize=8;edgeStyle=elbowEdgeStyle;elbow=vertical;curved=0;rounded=0;" parent="1" edge="1">
          <mxGeometry relative="1" as="geometry">
            <mxPoint x="80" y="310" as="targetPoint" />
            <Array as="points">
              <mxPoint x="185" y="310" />
            </Array>
            <mxPoint x="260" y="310" as="sourcePoint" />
          </mxGeometry>
        </mxCell>
        <mxCell id="pPaHzkRW0WduUCZ9Fjcq-17" value="Login Success" style="html=1;verticalAlign=bottom;endArrow=open;dashed=1;endSize=8;edgeStyle=elbowEdgeStyle;elbow=vertical;curved=0;rounded=0;" parent="1" edge="1">
          <mxGeometry relative="1" as="geometry">
            <mxPoint x="280" y="280" as="targetPoint" />
            <Array as="points">
              <mxPoint x="375" y="280" />
            </Array>
            <mxPoint x="450" y="280" as="sourcePoint" />
          </mxGeometry>
        </mxCell>
        <mxCell id="pPaHzkRW0WduUCZ9Fjcq-19" value="User" style="shape=umlActor;verticalLabelPosition=bottom;verticalAlign=top;html=1;" parent="1" vertex="1">
          <mxGeometry x="65" y="20" width="30" height="60" as="geometry" />
        </mxCell>
        <mxCell id="pPaHzkRW0WduUCZ9Fjcq-28" value="Enter (username, password)" style="html=1;verticalAlign=bottom;endArrow=block;edgeStyle=elbowEdgeStyle;elbow=vertical;curved=0;rounded=0;" parent="1" edge="1">
          <mxGeometry relative="1" as="geometry">
            <mxPoint x="80" y="130" as="sourcePoint" />
            <Array as="points">
              <mxPoint x="185" y="129.5" />
            </Array>
            <mxPoint x="260" y="130" as="targetPoint" />
          </mxGeometry>
        </mxCell>
        <mxCell id="pPaHzkRW0WduUCZ9Fjcq-32" value="Login Failure" style="html=1;verticalAlign=bottom;endArrow=open;dashed=1;endSize=8;edgeStyle=elbowEdgeStyle;elbow=vertical;curved=0;rounded=0;" parent="1" edge="1">
          <mxGeometry relative="1" as="geometry">
            <mxPoint x="280" y="179.5" as="targetPoint" />
            <Array as="points">
              <mxPoint x="375" y="179.5" />
            </Array>
            <mxPoint x="450" y="179.5" as="sourcePoint" />
          </mxGeometry>
        </mxCell>
        <mxCell id="9hIXvd_vDNnnHWC71N-C-1" value="Selects &quot;Forgot Password&quot;" style="html=1;verticalAlign=bottom;endArrow=block;edgeStyle=elbowEdgeStyle;elbow=vertical;curved=0;rounded=0;" edge="1" parent="1">
          <mxGeometry relative="1" as="geometry">
            <mxPoint x="80" y="360.5" as="sourcePoint" />
            <Array as="points">
              <mxPoint x="185" y="360" />
            </Array>
            <mxPoint x="260" y="360.5" as="targetPoint" />
          </mxGeometry>
        </mxCell>
        <mxCell id="9hIXvd_vDNnnHWC71N-C-9" value="Prompts Email Address" style="html=1;verticalAlign=bottom;endArrow=open;dashed=1;endSize=8;edgeStyle=elbowEdgeStyle;elbow=horizontal;curved=0;rounded=0;" edge="1" parent="1">
          <mxGeometry relative="1" as="geometry">
            <mxPoint x="80" y="390" as="targetPoint" />
            <Array as="points">
              <mxPoint x="185" y="390" />
            </Array>
            <mxPoint x="260" y="390" as="sourcePoint" />
          </mxGeometry>
        </mxCell>
        <mxCell id="9hIXvd_vDNnnHWC71N-C-10" value="Submits Email Address" style="html=1;verticalAlign=bottom;endArrow=block;edgeStyle=elbowEdgeStyle;elbow=horizontal;curved=0;rounded=0;" edge="1" parent="1">
          <mxGeometry relative="1" as="geometry">
            <mxPoint x="80" y="420.5" as="sourcePoint" />
            <Array as="points">
              <mxPoint x="185" y="420" />
            </Array>
            <mxPoint x="260" y="420.5" as="targetPoint" />
          </mxGeometry>
        </mxCell>
        <mxCell id="9hIXvd_vDNnnHWC71N-C-11" value="Validate PW Recovery Input" style="html=1;verticalAlign=bottom;endArrow=block;edgeStyle=elbowEdgeStyle;elbow=vertical;curved=0;rounded=0;" edge="1" parent="1">
          <mxGeometry relative="1" as="geometry">
            <mxPoint x="280" y="450" as="sourcePoint" />
            <Array as="points">
              <mxPoint x="375" y="450" />
            </Array>
            <mxPoint x="450" y="450.5" as="targetPoint" />
          </mxGeometry>
        </mxCell>
        <mxCell id="9hIXvd_vDNnnHWC71N-C-13" value="Query Email Address" style="html=1;verticalAlign=bottom;endArrow=block;edgeStyle=elbowEdgeStyle;elbow=vertical;curved=0;rounded=0;" edge="1" parent="1" source="9hIXvd_vDNnnHWC71N-C-12">
          <mxGeometry relative="1" as="geometry">
            <mxPoint x="470" y="460" as="sourcePoint" />
            <Array as="points">
              <mxPoint x="560" y="460" />
            </Array>
            <mxPoint x="645" y="460" as="targetPoint" />
          </mxGeometry>
        </mxCell>
        <mxCell id="9hIXvd_vDNnnHWC71N-C-14" value="" style="html=1;verticalAlign=bottom;endArrow=block;edgeStyle=elbowEdgeStyle;elbow=vertical;curved=0;rounded=0;" edge="1" parent="1" target="9hIXvd_vDNnnHWC71N-C-12">
          <mxGeometry relative="1" as="geometry">
            <mxPoint x="470" y="460" as="sourcePoint" />
            <Array as="points" />
            <mxPoint x="645" y="460" as="targetPoint" />
          </mxGeometry>
        </mxCell>
        <mxCell id="9hIXvd_vDNnnHWC71N-C-15" value="Return Query Result" style="html=1;verticalAlign=bottom;endArrow=open;dashed=1;endSize=8;edgeStyle=elbowEdgeStyle;elbow=vertical;curved=0;rounded=0;" edge="1" parent="1">
          <mxGeometry relative="1" as="geometry">
            <mxPoint x="470" y="499" as="targetPoint" />
            <Array as="points">
              <mxPoint x="565" y="499" />
            </Array>
            <mxPoint x="640" y="499" as="sourcePoint" />
          </mxGeometry>
        </mxCell>
        <mxCell id="9hIXvd_vDNnnHWC71N-C-16" value="No Account" style="html=1;verticalAlign=bottom;endArrow=open;dashed=1;endSize=8;edgeStyle=elbowEdgeStyle;elbow=vertical;curved=0;rounded=0;" edge="1" parent="1">
          <mxGeometry relative="1" as="geometry">
            <mxPoint x="280" y="520" as="targetPoint" />
            <Array as="points">
              <mxPoint x="375" y="520" />
            </Array>
            <mxPoint x="450" y="520" as="sourcePoint" />
          </mxGeometry>
        </mxCell>
        <mxCell id="9hIXvd_vDNnnHWC71N-C-17" value="Send Recovery Email" style="html=1;verticalAlign=bottom;endArrow=open;dashed=1;endSize=8;edgeStyle=elbowEdgeStyle;elbow=vertical;curved=0;rounded=0;" edge="1" parent="1">
          <mxGeometry relative="1" as="geometry">
            <mxPoint x="280" y="570" as="targetPoint" />
            <Array as="points">
              <mxPoint x="375" y="570" />
            </Array>
            <mxPoint x="450" y="570" as="sourcePoint" />
          </mxGeometry>
        </mxCell>
        <mxCell id="9hIXvd_vDNnnHWC71N-C-19" value="Recovery Email Sent" style="html=1;verticalAlign=bottom;endArrow=open;dashed=1;endSize=8;edgeStyle=elbowEdgeStyle;elbow=vertical;curved=0;rounded=0;" edge="1" parent="1">
          <mxGeometry relative="1" as="geometry">
            <mxPoint x="87" y="598" as="targetPoint" />
            <Array as="points">
              <mxPoint x="182" y="598" />
            </Array>
            <mxPoint x="257" y="598" as="sourcePoint" />
          </mxGeometry>
        </mxCell>
        <mxCell id="9hIXvd_vDNnnHWC71N-C-21" value="ALT: Forgot Password" style="rounded=0;whiteSpace=wrap;html=1;strokeColor=#7EA6E0;fontColor=#7EA6E0;" vertex="1" parent="1">
          <mxGeometry x="60" y="620" width="120" height="30" as="geometry" />
        </mxCell>
      </root>
    </mxGraphModel>
  </diagram>
</mxfile>
